<svg xmlns="http://www.w3.org/2000/svg" width="361.326" height="845.789" viewBox="0 0 361.326 845.789" fill="none">
  <path d="M 204.376 15.001 L 203.876 15.001 L 204.376 15.001 Z M 315.553 14.879 L 315.053 14.883 L 315.553 14.879 Z M 330.754 54.83 L 330.754 55.33 L 330.754 54.83 Z M 360.394 830.807 L 359.894 830.806 L 360.394 830.807 Z M 235.944 784.425 L 235.944 784.925 L 235.944 784.425 Z M 15.368 784.425 L 15.368 783.925 L 15.368 784.425 Z M 15.368 784.425 L 15.368 784.925 L 235.944 784.925 L 235.944 784.425 L 235.944 783.925 L 15.368 783.925 L 15.368 784.425 Z M 250.944 799.425 L 250.444 799.425 L 250.444 830.789 L 250.944 830.789 L 251.444 830.789 L 251.444 799.425 L 250.944 799.425 Z M 265.944 845.789 L 265.944 846.289 L 345.394 846.289 L 345.394 845.789 L 345.394 845.289 L 265.944 845.289 L 265.944 845.789 Z M 315.755 39.951 L 316.255 39.947 L 316.053 14.875 L 315.553 14.879 L 315.053 14.883 L 315.255 39.955 L 315.755 39.951 Z M 360.394 830.807 L 360.894 830.808 L 361.808 69.85 L 361.308 69.849 L 360.808 69.848 L 359.894 830.806 L 360.394 830.807 Z M 346.309 54.831 L 346.309 54.331 L 330.754 54.33 L 330.754 54.83 L 330.754 55.33 L 346.309 55.331 L 346.309 54.831 Z M 300.554 0 L 300.554 -0.5 L 219.375 -0.499 L 219.375 0.001 L 219.375 0.501 L 300.554 0.5 L 300.554 0 Z M 204.376 15.001 L 203.876 15.001 L 203.875 40.926 L 204.375 40.926 L 204.875 40.926 L 204.876 15.001 L 204.376 15.001 Z M 189.375 55.925 L 189.375 55.425 L 15.008 55.425 L 15.008 55.925 L 15.008 56.425 L 189.375 56.425 L 189.375 55.925 Z M 0.008 70.933 L -0.492 70.933 L -0.132 769.433 L 0.368 769.432 L 0.868 769.432 L 0.508 70.933 L 0.008 70.933 Z M 15.008 55.925 L 15.008 55.425 C 6.444 55.425 -0.497 62.37 -0.492 70.933 L 0.008 70.933 L 0.508 70.933 C 0.504 62.922 6.997 56.425 15.008 56.425 L 15.008 55.925 Z M 219.375 0.001 L 219.375 -0.499 C 210.815 -0.499 203.876 6.44 203.876 15.001 L 204.376 15.001 L 204.876 15.001 C 204.876 6.993 211.367 0.501 219.375 0.501 L 219.375 0.001 Z M 361.308 69.849 L 361.808 69.85 C 361.819 61.282 354.876 54.331 346.309 54.331 L 346.309 54.831 L 346.309 55.331 C 354.324 55.331 360.818 61.834 360.808 69.848 L 361.308 69.849 Z M 315.553 14.879 L 316.053 14.875 C 315.985 6.364 309.065 -0.5 300.554 -0.5 L 300.554 0 L 300.554 0.5 C 308.516 0.5 314.989 6.921 315.053 14.883 L 315.553 14.879 Z M 315.755 39.951 L 315.255 39.955 C 315.324 48.466 322.243 55.33 330.754 55.33 L 330.754 54.83 L 330.754 54.33 C 322.792 54.33 316.319 47.909 316.255 39.947 L 315.755 39.951 Z M 345.394 845.789 L 345.394 846.289 C 353.947 846.289 360.884 839.361 360.894 830.808 L 360.394 830.807 L 359.894 830.806 C 359.884 838.808 353.395 845.289 345.394 845.289 L 345.394 845.789 Z M 250.944 830.789 L 250.444 830.789 C 250.444 839.349 257.384 846.289 265.944 846.289 L 265.944 845.789 L 265.944 845.289 C 257.936 845.289 251.444 838.797 251.444 830.789 L 250.944 830.789 Z M 235.944 784.425 L 235.944 784.925 C 243.952 784.925 250.444 791.417 250.444 799.425 L 250.944 799.425 L 251.444 799.425 C 251.444 790.865 244.505 783.925 235.944 783.925 L 235.944 784.425 Z M 15.368 784.425 L 15.368 783.925 C 7.363 783.925 0.872 777.437 0.868 769.432 L 0.368 769.432 L -0.132 769.433 C -0.127 777.99 6.811 784.925 15.368 784.925 L 15.368 784.425 Z M 204.375 40.926 L 203.875 40.926 C 203.875 48.934 197.383 55.425 189.375 55.425 L 189.375 55.925 L 189.375 56.425 C 197.935 56.425 204.875 49.486 204.875 40.926 L 204.375 40.926 Z" fill="currentColor" fill-rule="nonzero"/>
</svg>
