<svg xmlns="http://www.w3.org/2000/svg" width="1357.289" height="2280.326" viewBox="0 0 1357.289 2280.326" fill="none">
  <path d="M 472.642 513.951 L 360.519 1351.975 C 353.519 1404.294 394.216 1450.798 447 1450.798 C 492.503 1450.798 531.028 1417.222 537.245 1372.146 L 712.829 99.097 C 720.632 42.522 769.416 0.658 826.521 1.533 C 894.788 2.579 946.547 63.451 936.604 130.998 L 824.65 891.54 C 815.226 955.563 865.032 1012.945 929.744 1012.619 C 982.21 1012.355 1026.539 973.642 1033.865 921.689 L 1114.43 350.333 C 1122.42 293.666 1171.345 251.809 1228.565 252.686 C 1296.888 253.733 1348.806 314.468 1339.21 382.121 L 1192.814 1414.288 C 1185.124 1468.504 1138.713 1508.797 1083.955 1508.797 C 1017.592 1508.797 966.354 1450.452 974.927 1384.645 L 988.851 1277.765 C 996.888 1216.069 949.305 1161.174 887.093 1160.371 C 834.481 1159.692 789.656 1198.425 782.695 1250.578 L 721.665 1707.821 C 714.084 1764.624 665.193 1806.766 607.893 1805.888 L 581.013 1805.476 C 527.162 1804.651 486.269 1756.735 493.919 1703.423 C 501.54 1650.308 460.63 1602.491 406.983 1601.372 C 361.596 1600.425 322.36 1633.459 315.866 1678.389 L 243.205 2181.161 C 235.01 2237.868 185.98 2279.669 128.691 2278.791 C 60.292 2277.743 8.228 2217.084 17.562 2149.317 L 247.04 483.321 C 254.883 426.379 303.947 384.217 361.421 385.03 C 429.636 385.995 481.689 446.332 472.642 513.951 Z" fill="currentColor" fill-rule="nonzero"/>
  <path d="M 360.519 1351.975 L 359.528 1351.843 L 359.528 1351.843 L 360.519 1351.975 Z M 472.642 513.951 L 473.634 514.084 L 473.634 514.084 L 472.642 513.951 Z M 247.04 483.321 L 248.03 483.458 L 248.03 483.458 L 247.04 483.321 Z M 17.562 2149.317 L 18.553 2149.453 L 18.553 2149.453 L 17.562 2149.317 Z M 243.205 2181.161 L 242.216 2181.018 L 242.216 2181.018 L 243.205 2181.161 Z M 315.866 1678.389 L 316.856 1678.532 L 316.856 1678.532 L 315.866 1678.389 Z M 581.013 1805.476 L 580.998 1806.476 L 580.998 1806.476 L 581.013 1805.476 Z M 607.893 1805.888 L 607.878 1806.888 L 607.878 1806.888 L 607.893 1805.888 Z M 721.665 1707.821 L 720.674 1707.689 L 720.674 1707.689 L 721.665 1707.821 Z M 782.695 1250.578 L 783.686 1250.71 L 783.686 1250.71 L 782.695 1250.578 Z M 988.851 1277.765 L 987.859 1277.635 L 987.859 1277.635 L 988.851 1277.765 Z M 974.927 1384.645 L 973.936 1384.516 L 974.927 1384.645 Z M 1192.814 1414.288 L 1193.804 1414.429 L 1193.804 1414.429 L 1192.814 1414.288 Z M 1339.21 382.121 L 1338.22 381.981 L 1338.22 381.981 L 1339.21 382.121 Z M 1114.43 350.333 L 1115.42 350.472 L 1115.42 350.472 L 1114.43 350.333 Z M 1033.865 921.689 L 1034.855 921.829 L 1034.855 921.829 L 1033.865 921.689 Z M 824.65 891.54 L 825.639 891.686 L 825.639 891.686 L 824.65 891.54 Z M 936.604 130.998 L 935.615 130.853 L 936.604 130.998 Z M 712.829 99.097 L 711.839 98.961 L 711.839 98.961 L 712.829 99.097 Z M 537.245 1372.146 L 538.235 1372.282 L 538.235 1372.282 L 537.245 1372.146 Z M 826.521 1.533 L 826.505 2.533 L 826.521 1.533 Z M 929.744 1012.619 L 929.749 1013.619 L 929.749 1013.619 L 929.744 1012.619 Z M 1228.565 252.686 L 1228.581 251.686 L 1228.581 251.686 L 1228.565 252.686 Z M 887.093 1160.371 L 887.08 1161.371 L 887.08 1161.371 L 887.093 1160.371 Z M 493.919 1703.423 L 494.909 1703.565 L 494.909 1703.565 L 493.919 1703.423 Z M 406.983 1601.372 L 407.004 1600.372 L 407.004 1600.372 L 406.983 1601.372 Z M 128.691 2278.791 L 128.706 2277.791 L 128.706 2277.791 L 128.691 2278.791 Z M 361.421 385.03 L 361.435 384.03 L 361.435 384.03 L 361.421 385.03 Z M 360.519 1351.975 L 361.51 1352.108 L 473.634 514.084 L 472.642 513.951 L 471.651 513.818 L 359.528 1351.843 L 360.519 1351.975 Z M 247.04 483.321 L 246.049 483.185 L 16.572 2149.18 L 17.562 2149.317 L 18.553 2149.453 L 248.03 483.458 L 247.04 483.321 Z M 243.205 2181.161 L 244.195 2181.304 L 316.856 1678.532 L 315.866 1678.389 L 314.877 1678.246 L 242.216 2181.018 L 243.205 2181.161 Z M 581.013 1805.476 L 580.998 1806.476 L 607.878 1806.888 L 607.893 1805.888 L 607.909 1804.888 L 581.029 1804.476 L 581.013 1805.476 Z M 721.665 1707.821 L 722.657 1707.954 L 783.686 1250.71 L 782.695 1250.578 L 781.703 1250.446 L 720.674 1707.689 L 721.665 1707.821 Z M 988.851 1277.765 L 987.859 1277.635 L 973.936 1384.516 L 974.927 1384.645 L 975.919 1384.774 L 989.843 1277.894 L 988.851 1277.765 Z M 1192.814 1414.288 L 1193.804 1414.429 L 1340.2 382.262 L 1339.21 382.121 L 1338.22 381.981 L 1191.824 1414.148 L 1192.814 1414.288 Z M 1114.43 350.333 L 1113.439 350.193 L 1032.875 921.549 L 1033.865 921.689 L 1034.855 921.829 L 1115.42 350.472 L 1114.43 350.333 Z M 824.65 891.54 L 825.639 891.686 L 937.593 131.144 L 936.604 130.998 L 935.615 130.853 L 823.661 891.395 L 824.65 891.54 Z M 712.829 99.097 L 711.839 98.961 L 536.254 1372.009 L 537.245 1372.146 L 538.235 1372.282 L 713.82 99.234 L 712.829 99.097 Z M 537.245 1372.146 L 536.254 1372.009 C 530.105 1416.59 492.004 1449.798 447 1449.798 L 447 1450.798 L 447 1451.798 C 493.003 1451.798 531.95 1417.853 538.235 1372.282 L 537.245 1372.146 Z M 826.521 1.533 L 826.536 0.533 C 768.926 -0.35 719.711 41.884 711.839 98.961 L 712.829 99.097 L 713.82 99.234 C 721.554 43.159 769.906 1.665 826.505 2.533 L 826.521 1.533 Z M 936.604 130.998 L 937.593 131.144 C 947.624 62.999 895.407 1.588 826.536 0.533 L 826.521 1.533 L 826.505 2.533 C 894.168 3.569 945.47 63.903 935.615 130.853 L 936.604 130.998 Z M 929.744 1012.619 L 929.739 1011.619 C 865.639 1011.942 816.304 955.103 825.639 891.686 L 824.65 891.54 L 823.661 891.395 C 814.147 956.023 864.425 1013.948 929.749 1013.619 L 929.744 1012.619 Z M 1033.865 921.689 L 1032.875 921.549 C 1025.618 973.01 981.708 1011.358 929.739 1011.619 L 929.744 1012.619 L 929.749 1013.619 C 982.711 1013.353 1027.46 974.273 1034.855 921.829 L 1033.865 921.689 Z M 1228.565 252.686 L 1228.581 251.686 C 1170.856 250.802 1121.5 293.027 1113.439 350.193 L 1114.43 350.333 L 1115.42 350.472 C 1123.34 294.305 1171.833 252.817 1228.55 253.686 L 1228.565 252.686 Z M 1339.21 382.121 L 1340.2 382.262 C 1349.88 314.012 1297.505 252.742 1228.581 251.686 L 1228.565 252.686 L 1228.55 253.686 C 1296.271 254.724 1347.731 314.923 1338.22 381.981 L 1339.21 382.121 Z M 1083.955 1508.797 L 1083.955 1509.797 C 1139.211 1509.797 1186.045 1469.137 1193.804 1414.429 L 1192.814 1414.288 L 1191.824 1414.148 C 1184.204 1467.87 1138.215 1507.797 1083.955 1507.797 L 1083.955 1508.797 Z M 974.927 1384.645 L 973.936 1384.516 C 965.285 1450.921 1016.988 1509.797 1083.955 1509.797 L 1083.955 1508.797 L 1083.955 1507.797 C 1018.195 1507.797 967.424 1449.983 975.919 1384.774 L 974.927 1384.645 Z M 887.093 1160.371 L 887.08 1161.371 C 948.693 1162.166 995.819 1216.533 987.859 1277.635 L 988.851 1277.765 L 989.843 1277.894 C 997.957 1215.605 949.916 1160.182 887.106 1159.371 L 887.093 1160.371 Z M 782.695 1250.578 L 783.686 1250.71 C 790.58 1199.059 834.974 1160.699 887.08 1161.371 L 887.093 1160.371 L 887.106 1159.371 C 833.988 1158.686 788.731 1197.791 781.703 1250.446 L 782.695 1250.578 Z M 607.893 1805.888 L 607.878 1806.888 C 665.685 1807.773 715.008 1765.259 722.657 1707.954 L 721.665 1707.821 L 720.674 1707.689 C 713.16 1763.99 664.702 1805.758 607.909 1804.888 L 607.893 1805.888 Z M 493.919 1703.423 L 492.929 1703.281 C 485.194 1757.189 526.544 1805.641 580.998 1806.476 L 581.013 1805.476 L 581.029 1804.476 C 527.78 1803.66 487.344 1756.28 494.909 1703.565 L 493.919 1703.423 Z M 406.983 1601.372 L 406.962 1602.372 C 460.014 1603.479 500.464 1650.765 492.929 1703.281 L 493.919 1703.423 L 494.909 1703.565 C 502.616 1649.85 461.246 1601.504 407.004 1600.372 L 406.983 1601.372 Z M 315.866 1678.389 L 316.856 1678.532 C 323.277 1634.105 362.076 1601.435 406.962 1602.372 L 406.983 1601.372 L 407.004 1600.372 C 361.115 1599.415 321.443 1632.812 314.877 1678.246 L 315.866 1678.389 Z M 128.691 2278.791 L 128.676 2279.791 C 186.467 2280.676 235.928 2238.509 244.195 2181.304 L 243.205 2181.161 L 242.216 2181.018 C 234.092 2237.227 185.492 2278.661 128.706 2277.791 L 128.691 2278.791 Z M 17.562 2149.317 L 16.572 2149.18 C 7.155 2217.542 59.676 2278.733 128.676 2279.791 L 128.691 2278.791 L 128.706 2277.791 C 60.908 2276.752 9.301 2216.625 18.553 2149.453 L 17.562 2149.317 Z M 361.421 385.03 L 361.435 384.03 C 303.456 383.21 253.961 425.742 246.049 483.185 L 247.04 483.321 L 248.03 483.458 C 255.805 427.015 304.437 385.224 361.407 386.03 L 361.421 385.03 Z M 472.642 513.951 L 473.634 514.084 C 482.76 445.87 430.249 385.003 361.435 384.03 L 361.421 385.03 L 361.407 386.03 C 429.023 386.986 480.619 446.793 471.651 513.818 L 472.642 513.951 Z M 360.519 1351.975 L 359.528 1351.843 C 352.448 1404.761 393.611 1451.798 447 1451.798 L 447 1450.798 L 447 1449.798 C 394.821 1449.798 354.591 1403.827 361.51 1352.108 L 360.519 1351.975 Z" fill="currentColor" fill-rule="nonzero"/>
</svg>
