<svg xmlns="http://www.w3.org/2000/svg" width="876.098" height="1807.697" viewBox="0 0 876.098 1807.697" fill="none">
  <path d="M 367.793 1159.072 C 314.506 1159.6 269.655 1199.097 262.393 1251.889 L 242.548 1396.16 C 234.742 1452.914 185.812 1494.919 128.53 1494.041 C 60.31 1492.996 8.47 1432.352 18.051 1364.8 L 163.862 336.753 C 171.871 280.281 220.645 238.588 277.676 239.462 C 346.059 240.51 397.903 301.491 387.933 369.152 L 310.722 893.16 C 300.966 959.368 352.371 1018.758 419.294 1018.596 C 474.217 1018.463 520.541 977.655 527.599 923.188 L 634.237 100.236 C 641.637 43.129 690.71 0.666 748.287 1.549 C 816.237 2.59 867.977 62.821 858.76 130.151 L 642.703 1708.33 C 634.938 1765.046 586.055 1807.037 528.817 1806.16 C 460.604 1805.115 408.808 1744.417 418.504 1676.888 L 475.231 1281.807 C 484.591 1216.617 433.647 1158.42 367.793 1159.072 Z" fill="currentColor" fill-rule="nonzero"/>
  <path d="M 475.231 1281.807 L 473.251 1281.522 L 475.231 1281.807 Z M 367.793 1159.072 L 367.812 1161.072 L 367.793 1159.072 Z M 528.817 1806.16 L 528.787 1808.16 L 528.817 1806.16 Z M 418.504 1676.888 L 416.524 1676.604 L 418.504 1676.888 Z M 642.703 1708.33 L 640.721 1708.059 L 642.703 1708.33 Z M 634.237 100.236 L 636.22 100.493 L 634.237 100.236 Z M 419.294 1018.596 L 419.289 1016.596 L 419.294 1018.596 Z M 128.53 1494.041 L 128.5 1496.041 L 128.53 1494.041 Z M 242.548 1396.16 L 240.567 1395.888 L 242.548 1396.16 Z M 262.393 1251.889 L 260.412 1251.616 L 240.567 1395.888 L 242.548 1396.16 L 244.53 1396.433 L 264.374 1252.161 L 262.393 1251.889 Z M 18.051 1364.8 L 20.031 1365.081 L 165.842 337.034 L 163.862 336.753 L 161.882 336.472 L 16.071 1364.519 L 18.051 1364.8 Z M 387.933 369.152 L 385.954 368.86 L 308.743 892.869 L 310.722 893.16 L 312.7 893.452 L 389.912 369.443 L 387.933 369.152 Z M 527.599 923.188 L 529.582 923.445 L 636.22 100.493 L 634.237 100.236 L 632.253 99.979 L 525.616 922.931 L 527.599 923.188 Z M 858.76 130.151 L 856.778 129.88 L 640.721 1708.059 L 642.703 1708.33 L 644.684 1708.602 L 860.741 130.422 L 858.76 130.151 Z M 418.504 1676.888 L 420.483 1677.172 L 477.211 1282.091 L 475.231 1281.807 L 473.251 1281.522 L 416.524 1676.604 L 418.504 1676.888 Z M 475.231 1281.807 L 477.211 1282.091 C 486.745 1215.688 434.853 1156.408 367.773 1157.072 L 367.793 1159.072 L 367.812 1161.072 C 432.442 1160.432 482.437 1217.546 473.251 1281.522 L 475.231 1281.807 Z M 528.817 1806.16 L 528.848 1804.161 C 461.84 1803.134 410.959 1743.508 420.483 1677.172 L 418.504 1676.888 L 416.524 1676.604 C 406.657 1745.326 459.368 1807.097 528.787 1808.16 L 528.817 1806.16 Z M 642.703 1708.33 L 640.721 1708.059 C 633.094 1763.772 585.074 1805.022 528.848 1804.161 L 528.817 1806.16 L 528.787 1808.16 C 587.035 1809.053 636.783 1766.319 644.684 1708.602 L 642.703 1708.33 Z M 748.287 1.549 L 748.257 3.548 C 815.007 4.571 865.833 63.739 856.778 129.88 L 858.76 130.151 L 860.741 130.422 C 870.122 61.904 817.468 0.608 748.318 -0.451 L 748.287 1.549 Z M 634.237 100.236 L 636.22 100.493 C 643.489 44.395 691.696 2.682 748.257 3.548 L 748.287 1.549 L 748.318 -0.451 C 689.724 -1.349 639.784 41.864 632.253 99.979 L 634.237 100.236 Z M 419.294 1018.596 L 419.299 1020.596 C 475.226 1020.461 522.396 978.907 529.582 923.445 L 527.599 923.188 L 525.616 922.931 C 518.687 976.403 473.209 1016.466 419.289 1016.596 L 419.294 1018.596 Z M 310.722 893.16 L 308.743 892.869 C 298.809 960.286 351.154 1020.761 419.299 1020.596 L 419.294 1018.596 L 419.289 1016.596 C 353.589 1016.755 303.123 958.45 312.7 893.452 L 310.722 893.16 Z M 277.676 239.462 L 277.645 241.462 C 344.82 242.491 395.748 302.395 385.954 368.86 L 387.933 369.152 L 389.912 369.443 C 400.057 300.587 347.297 238.529 277.706 237.462 L 277.676 239.462 Z M 163.862 336.753 L 165.842 337.034 C 173.71 281.56 221.622 240.603 277.645 241.462 L 277.676 239.462 L 277.706 237.462 C 219.668 236.573 170.033 279.002 161.882 336.472 L 163.862 336.753 Z M 128.53 1494.041 L 128.561 1492.041 C 61.545 1491.015 10.619 1431.441 20.031 1365.081 L 18.051 1364.8 L 16.071 1364.519 C 6.321 1433.263 59.076 1494.977 128.5 1496.041 L 128.53 1494.041 Z M 242.548 1396.16 L 240.567 1395.888 C 232.898 1451.64 184.832 1492.904 128.561 1492.041 L 128.53 1494.041 L 128.5 1496.041 C 186.792 1496.934 236.585 1454.188 244.53 1396.433 L 242.548 1396.16 Z M 262.393 1251.889 L 264.374 1252.161 C 271.501 1200.352 315.518 1161.59 367.812 1161.072 L 367.793 1159.072 L 367.773 1157.072 C 313.495 1157.61 267.809 1197.842 260.412 1251.616 L 262.393 1251.889 Z" fill="currentColor" fill-rule="nonzero"/>
</svg>
