<?xml version="1.0" encoding="UTF-8"?><svg id="Layer_2" xmlns="http://www.w3.org/2000/svg" width="391.5" height="158.65" viewBox="0 0 391.5 158.65"><defs><style>.cls-1{fill:#fff;}</style></defs><g id="Layer_1-2"><path class="cls-1" d="M202.9,53.45c-16.82,10.2-31.47,23.2-49.11,32.65-6.56,3.51-13.28,6.42-20.88,6.19-6.27-.19-11.07-4.72-10.84-11.21.13-3.79,1.66-9.66,5.05-12l32.72-8.98c10.66-2.93,34.98-13.21,35.29-21.04.14-3.37-.7-7.77-2.57-10.54-2.82-4.18-6.6-8.23-11.04-10.41l-5.51-2.71c-2.56-1.26-6.61-.68-9.46.19-19.7,6-38.09,15.26-53.45,28.87-4.36,3.86-7.81,7.97-10.03,13.09-6.82,1.62-12.5,1.79-19.58,4.4-3.22,1.18-3.24,5.59-1.96,8.03,1.45,2.75,4.36,2.77,7.55,3.35l6.79,1.22c-.34,3.98.18,6.85.2,11.46-13.17-5.28-29.52-8.17-44.2-9.48-8.69-.77-25.92-4.2-26.91-8.81-1.07-4.96,14.94-18.85,22.36-23.55l7.73-4.89c12.86-8.15,39.92-21.57,53.14-21.18,2.68.08,4.41,1.75,7.61.1l10.17-1.34c2.65-2.09-.57-4.89-1.23-6.61C122.39,4.16,117.43-.28,110.44.01c-22.35.96-48.25,10.76-68.6,20.86-13.63,6.76-25.52,15.52-34.9,27.57-2.63,3.38-4.69,7-5.95,11.03-3.28,10.57,1.76,20.34,11.82,24.81,8.46,3.75,15.01,5.42,24.22,5.99,15.52.97,39.32.62,49.96,7.35.98.62,2.01,1.88,1.98,2.82-.09,3.49-20.69,16.39-28.34,21.77-10.67,7.5-20.61,15.47-27.87,26.22-2.11,3.12-3.37,6.44-2.81,10.22,2.44-1.04,3.94-1.51,6.25-1.73,3.05-.28,5.97-4.23,8.51-4.91,4.3-.34,7.19-1.43,10.99-3.54,8.18-4.53,16.91-7.51,22.29-11.16,11.48-7.77,28.88-18.81,32.55-32.09,4.61,2.94,9.02,3.52,14.18,3.49,3.97-.03,7.88.85,11.9.47,23.14-2.17,44.95-17.34,64.22-31.42-.76,7.66-2.39,13.88-.63,20.41,2.14,7.17,8.36,4.38,10.83,6.96.88.91,1.97,1.21,3.06.83,2.53-.89.62-4.93,3.3-8.23-2.07-4.64,2.77-10.89,5.08-16.51l4.29-10.45c1.67-4.06,2.41-7.78,3.16-12.06.52-2.97,2.81-6.23.99-9.58-2.62-4.83-18.73-1.33-28.05,4.32ZM168.14,32.8c2.54-1.08,5.31-.95,7.44,1.36-9,4.46-17.9,8.2-28.25,10.37l20.81-11.73Z"/><path class="cls-1" d="M380.01,47.04c-7.31-5.15-16.03-6.49-24.88-5.7-11.55,1.02-22.42,2.96-33.59,5.77-3.25.81-6.15,1.62-10.14,1.72,6.18-6.61,11.98-12.34,16.37-19.85,1.55-2.66,1.4-5.2,1.84-8.17.35-2.37,2.42-4.97.87-7.61-4.36-7.39-17.17-6.19-26.58-3.85-6.86,1.71-13.21,3.26-19.41,6.73l-24.27,13.59c-2.62,1.47-4.25,4.23-4.25,6.7,0,2.62.94,7.87,3.97,7.13l11.22-2.75c11.39-5.4,22.29-11.3,35.75-13.04-10.71,12.04-21.95,22.16-33.34,32.38l-12.05,3.59c-5.8,1.73-11.07,3.48-17.12,3.55l-2.35,2.51c-3.64.21-7.18,2.62-7.35,6.58l-.23,5.55c2.04,4.52,7.22.18,15.36,1.8-8.19,10.32-17.5,22.23-13.26,34.65,2.51,7.36,12.64,13.25,21.94,13.14,5.19-.06,9.8-.11,14.57-2.01l23.89-9.52,13.93-5.43,6.63-3.78c3.25-1.86,6.34-2.99,10.04-4.17l7.22-2.31c4.23-2.12,8.3-2.96,12.71-4.58,1.9-.7,3.07-2.83,5.9-3.06,2.41-.2,5.91-.16,8.21-1.36,1.43-.81,1.74-3.03,2.34-3.85-1.5-1.18-3.25-1.39-5.13-1.52-14.67-1.05-28.65.69-43.02,3.75-13.41,2.86-25.67,7.63-38.25,12.9-4.32,1.81-8.32,3.77-13.51,3.52,2.74-9.67,17.87-31.72,22.45-33.21l17.49-5.68,10.78-3.3c4.52-2.71,8.76-5.15,14.21-5.92,4.53-.64,8.64-3.14,13.05-3.77l18.35-2.63c-3.69,9.09-1.83,20.08,2.76,17.9,3.26-1.55,4.74.35,6.9,2.35,1.57,1.45,5.01-.62,6.3-1.99,4.07-1.74,5.62-5.38,5.8-9.65,2.96-3.13,4.13-7,3.11-11.25l-5.26-5.85Z"/><path class="cls-1" d="M389.88,8.01c-4.89-7.14-9.14-5.1-14.93-5.87-2.48-.33-6.74,1.78-8.04,4.05-3.82,6.67,6.75,25.4,19.31,22.72,4.33-.92,2.25-5.94,3.8-9.21,1.7-3.59,2.28-8.15-.14-11.69Z"/><path class="cls-1" d="M241.99,25.17c.22-3.62,2.79-4.49,3.43-6.33.88-2.5.46-5.22,1.58-7.63.65-1.39.3-2.6-.41-3.58-1.86-2.57-16.08-5.64-18.17,2.06-1.85,6.83,5.64,13.33,13.57,15.48Z"/></g></svg>