<svg width="1728" height="990" viewBox="0 0 1728 990" fill="none" xmlns="http://www.w3.org/2000/svg">
<g opacity="0.5">
<mask id="mask0_1141_25" style="mask-type:alpha" maskUnits="userSpaceOnUse" x="0" y="0" width="1728" height="990">
<rect width="1728" height="990" fill="black"></rect>
<rect x="0.5" y="0.5" width="1727" height="989" stroke="black" stroke-opacity="0.4"></rect>
</mask>
<g mask="url(#mask0_1141_25)">
<path d="M555.271 -270.643C622.621 -269.611 673.905 -209.911 664.769 -143.176L448.712 1435C441.016 1491.22 392.565 1532.84 335.833 1531.97C268.223 1530.93 216.883 1470.77 226.493 1403.84L283.221 1008.76C292.668 942.961 241.25 884.223 174.782 884.881C121.001 885.413 75.7316 925.278 68.4023 978.561L48.5576 1122.83C40.8198 1179.09 -7.67825 1220.72 -64.4541 1219.85C-132.072 1218.81 -183.455 1158.71 -173.959 1091.75L-28.1484 63.7021C-20.2095 7.72883 28.1333 -33.5956 84.6602 -32.7295C152.439 -31.6909 203.825 28.7517 193.943 95.8145L116.732 619.823C106.888 686.636 158.763 746.568 226.297 746.404C281.721 746.27 328.468 705.09 335.591 650.125L442.229 -172.827C449.563 -229.429 498.203 -271.517 555.271 -270.643Z" stroke="#9E4EFF" stroke-width="2"></path>
<path d="M1404.22 -258.136C1472.19 -257.094 1523.72 -196.49 1513.82 -129.242L1401.87 631.3C1392.4 695.625 1442.44 753.278 1507.46 752.951C1560.17 752.686 1604.71 713.789 1612.07 661.591L1692.64 90.2344C1700.59 33.8173 1749.3 -7.85525 1806.27 -6.98242C1874.29 -5.94014 1925.98 54.5273 1916.43 121.883L1770.03 1154.05C1762.38 1208.02 1716.17 1248.13 1661.67 1248.13C1595.6 1248.13 1544.6 1190.05 1553.13 1124.54L1567.06 1017.66C1575.13 955.669 1527.32 900.51 1464.81 899.703C1411.95 899.021 1366.9 937.94 1359.91 990.344L1298.88 1447.59C1291.33 1504.14 1242.66 1546.09 1185.61 1545.22L1158.73 1544.81C1105.18 1543.99 1064.52 1496.34 1072.12 1443.33C1079.79 1389.91 1038.65 1341.83 984.704 1340.7C939.066 1339.75 899.612 1372.97 893.082 1418.15L820.421 1920.92C812.262 1977.38 763.447 2019 706.409 2018.12C638.311 2017.08 586.475 1956.69 595.769 1889.22L825.246 223.222C833.055 166.529 881.903 124.552 939.125 125.361C1007.04 126.322 1058.86 186.395 1049.86 253.717L937.734 1091.74C930.695 1144.36 971.625 1191.13 1024.71 1191.13C1070.46 1191.13 1109.2 1157.37 1115.45 1112.05L1291.04 -161.003C1298.8 -217.328 1347.37 -259.007 1404.22 -258.136Z" stroke="#9E4EFF"></path>
</g>
</g>
</svg>