<?xml version="1.0" encoding="utf-8"?>
<svg xmlns="http://www.w3.org/2000/svg" fill="none" height="100%" overflow="visible" preserveAspectRatio="none" style="display: block;" viewBox="0 0 1280 737" width="100%">
<g id="Group 1618872550">
<mask height="737" id="mask0_0_161" maskUnits="userSpaceOnUse" style="mask-type:alpha" width="1280" x="0" y="0">
<path d="M0 0H1280V737H0V0Z" fill="var(--fill-0, #9E4EFF)" id="Rectangle 129"></path>
</mask>
<g mask="url(#mask0_0_161)">
<path d="M977.764 257.838C994.384 258.065 1006.97 272.93 1004.45 289.359L952.96 625.271C950.892 638.764 939.193 648.668 925.544 648.481C908.856 648.253 896.26 633.263 898.908 616.785L911.493 538.502C914.046 522.624 901.702 508.266 885.62 508.408C872.89 508.521 862.118 517.843 860.18 530.425L855.981 557.696C855.701 559.511 855.245 561.261 854.636 562.93L836.399 677.777C834.347 690.697 823.206 700.207 810.124 700.208C793.903 700.208 781.458 685.816 783.799 669.764L786.162 653.558C788.358 638.501 776.783 624.957 761.567 624.782C749.004 624.637 738.262 633.786 736.404 646.212L722.202 741.249C720.182 754.767 708.481 764.71 694.815 764.523L685.231 764.392C673.621 764.233 664.859 753.807 666.7 742.343C668.536 730.918 659.834 720.511 648.264 720.296L645.153 720.238C634.338 720.037 625.021 727.819 623.293 738.497L606.264 843.737C604.081 857.224 592.345 867.076 578.684 866.889C561.944 866.66 549.274 851.68 551.825 835.134L606.551 480.283C608.642 466.726 620.393 456.776 634.11 456.949C650.798 457.16 663.463 472.052 660.99 488.558L634.797 663.416C632.885 676.178 642.77 687.653 655.674 687.653C666.548 687.653 675.797 679.723 677.456 668.976L719.446 397.073C721.523 383.618 733.194 373.749 746.807 373.935C763.509 374.164 776.094 389.2 773.378 405.681L747.431 563.11C744.86 578.709 756.936 592.873 772.745 592.802C785.269 592.746 795.906 583.617 797.859 571.246L816.77 451.46C817.075 449.524 817.579 447.663 818.257 445.895L836.28 332.399C838.412 318.974 850.08 309.151 863.672 309.337C880.405 309.566 893.012 324.631 890.288 341.142L872.783 447.249C870.123 463.376 882.586 478.031 898.931 477.996C912.046 477.967 923.159 468.329 925.042 455.349L950.296 281.28C952.27 267.679 964.022 257.65 977.764 257.838ZM357.979 188.817C374.681 189.046 387.265 204.082 384.549 220.563L358.603 377.992C356.032 393.591 368.108 407.755 383.917 407.684C396.441 407.628 407.076 398.498 409.029 386.128L427.941 266.341C430.069 252.863 441.777 242.996 455.421 243.182C472.139 243.411 484.769 258.411 482.147 274.924L447.57 492.659C447.363 493.961 447.061 495.229 446.677 496.456L436.107 560.532C433.446 576.659 445.908 591.313 462.253 591.278C475.369 591.25 486.482 581.612 488.365 568.633L513.619 394.563C515.593 380.962 527.344 370.933 541.086 371.121C557.706 371.348 570.29 386.213 567.772 402.642L516.282 738.554C514.214 752.047 502.516 761.951 488.867 761.764C472.179 761.536 459.583 746.546 462.232 730.067L474.817 651.785C477.369 635.907 465.025 621.548 448.944 621.69C436.213 621.803 425.441 631.126 423.503 643.709L419.303 670.979C417.223 684.482 405.513 694.389 391.852 694.202C375.161 693.973 362.552 678.998 365.17 662.512L397.242 460.55C395.257 448.953 385.225 439.808 372.738 439.664C360.176 439.519 349.433 448.668 347.576 461.093L333.374 556.132C331.354 569.649 319.653 579.593 305.987 579.406L296.402 579.274C284.793 579.115 276.03 568.688 277.871 557.225C279.707 545.799 271.005 535.393 259.435 535.177L256.324 535.12C245.51 534.918 236.192 542.701 234.464 553.379L217.436 658.619C215.253 672.106 203.516 681.958 189.855 681.771C173.115 681.542 160.446 666.562 162.997 650.016L217.723 295.165C219.814 281.608 231.565 271.657 245.281 271.831C261.97 272.042 274.635 286.934 272.162 303.44L245.968 478.298C244.056 491.06 253.941 502.535 266.846 502.535C277.72 502.535 286.969 494.605 288.628 483.858L330.616 211.955C332.694 198.5 344.366 188.631 357.979 188.817ZM1183.49 260.652C1200.19 260.881 1212.77 275.917 1210.06 292.398L1184.11 449.827C1181.54 465.426 1193.62 479.59 1209.42 479.519C1221.95 479.463 1232.58 470.333 1234.54 457.963L1253.45 338.176C1255.58 324.698 1267.28 314.831 1280.93 315.017C1297.65 315.246 1310.28 330.246 1307.65 346.759L1273.08 564.494C1271.03 577.414 1259.88 586.925 1246.8 586.925C1230.58 586.925 1218.14 572.532 1220.48 556.481L1222.84 540.276C1225.04 525.218 1213.46 511.674 1198.25 511.499C1185.68 511.354 1174.94 520.504 1173.08 532.929L1158.88 627.966C1156.86 641.484 1145.16 651.428 1131.49 651.241L1121.91 651.109C1110.3 650.95 1101.54 640.523 1103.38 629.06C1105.21 617.634 1096.51 607.229 1084.94 607.013L1081.83 606.955C1071.02 606.753 1061.7 614.536 1059.97 625.214L1042.94 730.454C1040.76 743.941 1029.02 753.793 1015.36 753.606C998.623 753.377 985.953 738.397 988.505 721.851L1043.23 367C1045.32 353.443 1057.07 343.492 1070.79 343.666C1087.48 343.877 1100.14 358.769 1097.67 375.275L1071.48 550.133C1069.56 562.895 1079.45 574.371 1092.35 574.371C1103.23 574.371 1112.48 566.44 1114.14 555.693L1156.13 283.79C1158.2 270.335 1169.87 260.466 1183.49 260.652ZM152.261 186.003C168.88 186.23 181.464 201.095 178.946 217.524L127.456 553.436C125.388 566.929 113.69 576.833 100.041 576.646C83.3526 576.418 70.7563 561.427 73.4055 544.949L85.9904 466.667C88.543 450.789 76.1987 436.431 60.1174 436.573C47.3872 436.686 36.6148 446.008 34.677 458.591L30.4777 485.861C28.3981 499.364 16.6874 509.27 3.02656 509.084C-13.6644 508.855 -26.2731 493.88 -23.6551 477.394L10.7775 260.564C12.9095 247.139 24.5766 237.315 38.1691 237.501C54.9022 237.73 67.5093 252.796 64.7853 269.307L47.2805 375.414C44.62 391.541 57.0826 406.195 73.4279 406.16C86.5433 406.131 97.6561 396.494 99.5393 383.514L124.793 209.445C126.767 195.844 138.519 185.815 152.261 186.003Z" fill="var(--fill-0, #FF8D28)" id="Union"></path>
</g>
</g>
</svg>