<svg width="230" height="40" viewBox="0 0 230 40" fill="none" xmlns="http://www.w3.org/2000/svg">
<path d="M4.74898 22.4326L3.95193 27.624L0 27.5697L3.0714 8.16896L7.02333 8.22321L5.04528 20.2501L8.89705 20.2418L11.1756 4.48828L15.1275 4.54253L10.8626 32.4523L6.91065 32.398L8.51313 22.3992L4.74898 22.4326Z" fill="black"></path>
<path d="M19.3014 27.1305L21.7594 10.6717L17.8075 10.6217L13.3047 39.9085L17.2566 39.9628L18.9551 29.434L22.0807 29.4924L21.5841 32.5931L25.5361 32.6473L27.03 22.6193L30.6398 22.6611L29.8594 28.0277H33.6694L36.7409 8.62691L32.7889 8.57266L30.9361 20.345L27.2345 20.3617L29.801 4.74175L25.849 4.6875L22.4521 27.1096" fill="black"></path>
<path d="M68.391 17.3397C69.9258 18.8745 70.7336 21.298 70.7336 24.61V36H66.3715V24.8523C66.3715 22.9136 65.9272 21.4191 65.079 20.369C64.2308 19.3592 63.0191 18.8341 61.4035 18.8341C59.6667 18.8341 58.2934 19.44 57.3241 20.6517C56.3547 21.8634 55.87 23.479 55.87 25.5389V36H51.5079V7.72683H55.87V18.3091C57.4048 16.1684 59.5859 15.0779 62.3728 15.0779C64.8367 15.0779 66.8562 15.8453 68.391 17.3397ZM74.3776 20.1266C75.2258 18.511 76.3971 17.2993 77.9319 16.4107C79.4668 15.5221 81.2035 15.0779 83.1827 15.0779C85.1618 15.0779 86.8986 15.4818 88.4334 16.2896C89.9682 17.0974 91.1395 18.2687 92.0281 19.7227C92.9167 21.2172 93.361 22.954 93.4014 24.9331C93.4014 25.4985 93.361 26.0236 93.2802 26.5891H77.6896V26.8314C77.7704 28.649 78.3358 30.0626 79.386 31.1128C80.3957 32.1629 81.769 32.688 83.4654 32.688C84.7983 32.688 85.9292 32.4053 86.8582 31.759C87.7468 31.1128 88.3526 30.2242 88.6757 29.0529H93.0379C92.634 31.1532 91.6242 32.89 89.9682 34.2228C88.3122 35.5961 86.2523 36.2423 83.7885 36.2423C81.6074 36.2423 79.7495 35.8384 78.1339 34.9499C76.5183 34.0613 75.3066 32.8496 74.418 31.234C73.5294 29.6587 73.1255 27.8008 73.1255 25.7005C73.1255 23.6002 73.5294 21.7422 74.3776 20.1266ZM88.9585 23.3982C88.7565 21.9038 88.1507 20.7325 87.1409 19.8843C86.1311 19.0361 84.879 18.5918 83.3442 18.5918C81.8902 18.5918 80.6785 19.0361 79.6283 19.9247C78.5782 20.8133 78.0127 21.9442 77.8511 23.3982H88.9585ZM115.911 32.2033V36H113.609C112.236 36 111.266 35.7173 110.701 35.1518C110.095 34.5863 109.812 33.7785 109.812 32.688C108.237 35.071 105.975 36.2423 102.986 36.2423C100.644 36.2423 98.7859 35.7173 97.4126 34.6267C95.999 33.5766 95.3124 32.0821 95.3124 30.1838C95.3124 28.0835 96.0394 26.4275 97.5742 25.2966C99.0686 24.1657 101.25 23.5598 104.158 23.5598H109.368V22.3077C109.368 21.1768 108.964 20.2478 108.156 19.6016C107.349 18.9553 106.218 18.5918 104.804 18.5918C103.512 18.5918 102.461 18.8745 101.654 19.44C100.846 20.0055 100.361 20.7325 100.2 21.6211H95.9182C96.1202 19.5612 97.0491 17.9456 98.6647 16.8146C100.28 15.6837 102.381 15.0779 105.006 15.0779C107.753 15.0779 109.893 15.7241 111.428 17.0166C112.922 18.3091 113.69 20.167 113.69 22.5904V30.7493C113.69 31.7186 114.134 32.2033 115.063 32.2033H115.911ZM109.368 26.791H103.956C102.583 26.791 101.573 27.0738 100.846 27.5988C100.119 28.1239 99.7553 28.8913 99.7553 29.9011C99.7553 30.7897 100.078 31.5167 100.765 32.0418C101.452 32.6072 102.381 32.8496 103.592 32.8496C105.37 32.8496 106.783 32.3649 107.793 31.3955C108.803 30.4261 109.328 29.1337 109.368 27.518V26.791ZM128.91 15.3202V19.3996H126.971C125.154 19.3996 123.861 20.0055 123.054 21.1768C122.246 22.3481 121.842 23.8425 121.842 25.6197V36H117.48V15.3202H121.357L121.842 18.4302C122.407 17.4609 123.175 16.7339 124.144 16.1684C125.073 15.6029 126.325 15.3202 127.941 15.3202H128.91ZM130.872 9.54439H135.234V15.3202H140.242V19.1573H135.234V29.9415C135.234 30.7493 135.395 31.3551 135.718 31.6782C136.041 32.0014 136.567 32.1629 137.374 32.1629H140.686V36H136.486C134.507 36 133.093 35.5557 132.204 34.6267C131.316 33.7381 130.872 32.3245 130.872 30.3858V9.54439ZM140.273 15.3202H144.877L149.603 31.1532L154.328 15.3202H158.327L162.851 31.1532L167.738 15.3202H172.181L165.315 36H160.629L156.267 21.9442L151.744 36L147.018 36.0404L140.273 15.3202ZM177.319 34.9499C175.703 34.0613 174.491 32.8496 173.603 31.234C172.714 29.6183 172.31 27.7604 172.31 25.6601C172.31 23.6002 172.714 21.7826 173.603 20.167C174.491 18.5514 175.703 17.2993 177.319 16.4107C178.934 15.5221 180.752 15.0779 182.852 15.0779C184.912 15.0779 186.73 15.5221 188.345 16.4107C189.961 17.2993 191.173 18.5514 192.061 20.167C192.95 21.7826 193.394 23.6002 193.394 25.6601C193.394 27.7604 192.95 29.6183 192.061 31.234C191.173 32.8496 189.961 34.0613 188.345 34.9499C186.73 35.8384 184.912 36.2423 182.852 36.2423C180.752 36.2423 178.934 35.8384 177.319 34.9499ZM187.255 30.6281C188.386 29.3356 188.951 27.6796 188.951 25.6601C188.951 23.6406 188.386 22.025 187.255 20.7325C186.124 19.44 184.67 18.7938 182.852 18.7938C180.994 18.7938 179.54 19.44 178.45 20.7325C177.319 22.025 176.794 23.6406 176.794 25.6601C176.794 27.6796 177.319 29.3356 178.45 30.6281C179.54 31.9206 180.994 32.5264 182.852 32.5264C184.67 32.5264 186.124 31.9206 187.255 30.6281ZM207.524 15.3202V19.3996H205.586C203.768 19.3996 202.476 20.0055 201.668 21.1768C200.86 22.3481 200.456 23.8425 200.456 25.6197V36H196.094V15.3202H199.971L200.456 18.4302C201.022 17.4609 201.789 16.7339 202.758 16.1684C203.687 15.6029 204.939 15.3202 206.555 15.3202H207.524ZM209.486 7.72683H213.848V25.4178L223.299 15.3202H228.348L220.633 23.6406L228.833 36H223.663L217.523 26.8314L213.848 30.7089V36H209.486V7.72683Z" fill="black"></path>
</svg>